<svg width="1440" height="3571" viewBox="0 0 1440 3571" fill="none" xmlns="http://www.w3.org/2000/svg">
<g clip-path="url(#clip0_1_133)">
<rect width="1440" height="3571" fill="white"/>
<rect x="1" y="1" width="1438" height="717" fill="white" stroke="black" stroke-width="2"/>
<path d="M59.218 41.2447C58.3824 65.0584 55.5527 88.5537 49.9304 111.718C49.265 114.459 48.0503 122.757 47.9222 119.939C47.6123 113.121 49.144 105.4 50.1814 98.7277C50.2398 98.3518 51.065 85.3102 55.3272 87.7457C56.7997 88.5871 60.9366 97.2404 61.4772 95.2135C63.3938 88.0259 63.4855 79.8428 64.3639 72.4964C64.8774 68.201 64.5627 60.0896 66.874 55.9292C67.7447 54.3621 67.6634 59.4295 67.9409 61.2006C69.4949 71.1224 71.227 81.003 72.6474 90.9462C72.9256 92.8931 73.9671 97.9965 75.0321 96.343C79.644 89.1824 80.9665 78.098 83.5667 70.1117C84.9897 65.741 89.2698 45.152 93.8584 58.0001C95.9014 63.7206 97.4711 69.6044 98.8787 75.5086C100.282 81.3931 99.8776 82.1604 102.77 75.7596C103.093 75.0435 108.118 60.6453 111.367 63.5225C116.199 67.8023 114.934 81.3248 116.199 87.3064C117.15 91.8043 118.71 85.769 119.211 84.5452C122.254 77.1139 124.726 69.0582 129.001 62.2047C134.611 53.2108 135.647 71.2237 135.904 74.5673C136.5 82.321 138.746 78.0029 142.556 72.8729C144.894 69.7245 149.202 56.5764 152.408 64.3383C153.884 67.9115 154.229 71.5787 155.232 75.2576C156.908 81.4029 160.919 68.004 161.257 67.225C165.949 56.4031 166.597 67.2503 172.866 65.3424C176.007 64.3863 177.84 62.7067 181.212 62.7067" stroke="#2D2721" stroke-width="20" stroke-linecap="round"/>
<path d="M935.743 55.6507H989.907" stroke="#2D2721" stroke-width="20" stroke-linecap="round"/>
<path d="M1031.24 55.6507H1093.96" stroke="#2D2721" stroke-width="20" stroke-linecap="round"/>
<path d="M1156.68 54.2253C1178.56 54.2253 1200.34 52.7999 1222.24 52.7999" stroke="#2D2721" stroke-width="20" stroke-linecap="round"/>
<path d="M1371.91 51.3746C1368.42 51.3746 1354.42 49.6927 1356.31 56.2842C1357.18 59.3268 1371.26 55.2344 1364.62 52.2456C1357.96 49.2464 1365.1 56.9411 1368.74 57.076C1374.66 57.2952 1377.54 53.1384 1370.48 51.3746" stroke="#2D2721" stroke-width="20" stroke-linecap="round"/>
<rect x="563" y="806" width="792" height="717" fill="white" stroke="black" stroke-width="2"/>
<line y1="-1" x2="1065.15" y2="-1" transform="matrix(0.745438 -0.666575 0.262343 0.964975 562 1515)" stroke="black" stroke-width="2"/>
<line y1="-1" x2="1065.15" y2="-1" transform="matrix(-0.745438 -0.666575 0.262343 -0.964975 1356 1515)" stroke="black" stroke-width="2"/>
<rect x="-4" y="2346" width="723" height="643" fill="white" stroke="black" stroke-width="2"/>
<line y1="-1" x2="965.039" y2="-1" transform="matrix(0.751265 -0.660001 0.266697 0.96378 -5 2981.93)" stroke="black" stroke-width="2"/>
<line y1="-1" x2="965.039" y2="-1" transform="matrix(-0.751265 -0.660001 0.266697 -0.96378 720 2981.93)" stroke="black" stroke-width="2"/>
<path d="M439.394 277.813C435.059 291.747 429.565 304.976 423.964 318.454C419.989 328.017 404.675 352.784 413.749 347.793C422.721 342.859 436.213 314.187 440.263 307.805C449.877 292.656 466.727 252.639 485.468 245.432C499.629 239.985 498.073 359.105 498.073 369.092C498.073 379.461 494.125 411.248 507.635 385.174C529.807 342.381 544.296 286.853 576.746 250.43C584.224 242.036 583.376 272.481 582.396 283.681C581.486 294.081 580.223 304.719 580.223 315.194C580.223 328.234 616.98 275.995 620.211 271.511C626.025 263.443 629.936 243.953 638.902 248.257C640.6 249.072 640.646 251.639 641.075 253.473C643.843 265.3 645.589 285.438 646.508 295.852C648.609 319.664 646.197 348.942 653.245 372.134C658.308 388.793 679.554 353.874 681.933 350.836C691.538 338.569 701.866 316.434 708.447 340.839C716.703 371.456 706.86 385.713 739.959 356.052C754.24 343.255 776.53 305.348 794.292 319.975C813.831 336.067 881.484 266.498 896.653 254.777C925.189 232.727 909.217 277.691 937.946 271.946C949.274 269.68 954.752 271.287 964.025 278.031C984.993 293.28 1013.38 289.549 1037.92 289.549" stroke="#2D2721" stroke-width="20" stroke-linecap="round"/>
<path d="M392.451 536C404.207 523.553 449.324 466.888 470.255 490.144C484.755 506.256 470.97 527.469 499.811 510.79C517.623 500.489 527.154 491.204 547.406 495.142C588.069 503.049 625.599 486.511 661.069 509.486C703.564 537.011 781.413 538.045 826.022 516.875C845.483 507.639 861.992 501.669 882.744 493.838C924.571 478.055 973.982 481.233 1018.36 481.233" stroke="#2D2721" stroke-width="20" stroke-linecap="round"/>
<rect x="721" y="2346" width="718" height="643" fill="white" stroke="black" stroke-width="2"/>
<path d="M781 2668C820.615 2676.8 865.626 2671.91 906.181 2671.91" stroke="#2D2721" stroke-width="20" stroke-linecap="round"/>
<path d="M646 3510C685.615 3518.8 730.626 3513.91 771.181 3513.91" stroke="#2D2721" stroke-width="20" stroke-linecap="round"/>
<path d="M930 3513C969.615 3521.8 1014.63 3516.91 1055.18 3516.91" stroke="#2D2721" stroke-width="20" stroke-linecap="round"/>
<path d="M1214 3516C1253.61 3524.8 1298.63 3519.91 1339.18 3519.91" stroke="#2D2721" stroke-width="20" stroke-linecap="round"/>
<path d="M374 3505C413.615 3513.8 458.626 3508.91 499.181 3508.91" stroke="#2D2721" stroke-width="20" stroke-linecap="round"/>
<path d="M118 3500C157.615 3508.8 202.626 3503.91 243.181 3503.91" stroke="#2D2721" stroke-width="20" stroke-linecap="round"/>
<path d="M788.824 2734.5C820.988 2735.9 852.057 2742.33 884.448 2742.33C927.024 2742.33 968.922 2741.81 1011.37 2738.41C1053.35 2735.06 1094.88 2734.5 1136.98 2734.5" stroke="#2D2721" stroke-width="20" stroke-linecap="round"/>
<path d="M177.295 813.746C177.295 835.971 175.639 855.145 170.341 876.337C168.875 882.199 169.472 888.624 169.472 894.592C169.472 902.416 163.362 922.951 169.472 918.064C176.461 912.473 181.432 890.503 187.293 882.422C192.625 875.07 198.294 870.248 206.852 867.644C221.408 863.213 228.176 891.441 235.974 898.07C242.264 903.416 266.138 859.208 271.181 854.604C279.215 847.269 300.067 890.006 302.477 895.896C306.221 905.048 344.217 856.472 350.289 854.604C380.52 845.302 381.759 923.144 412.88 898.939C423.88 890.384 439.317 872.786 455.259 876.771C470.018 880.461 471.353 893.995 489.597 888.724C506.887 883.73 531.246 855.669 549.362 863.08C591.313 880.242 630.745 883.324 674.544 870.904C692.611 865.78 714.078 855.171 732.788 857.212C754.637 859.595 775.588 860.504 797.552 858.733C807.367 857.942 818.326 855.516 827.978 858.733C849.553 865.925 881.464 854.809 901 845.041" stroke="#2D2721" stroke-width="20" stroke-linecap="round"/>
<path d="M348.539 1825C348.539 1847.22 346.882 1866.4 341.585 1887.59C340.119 1893.45 340.715 1899.88 340.715 1905.85C340.715 1913.67 334.606 1934.21 340.715 1929.32C347.704 1923.73 352.676 1901.76 358.536 1893.68C363.869 1886.32 369.537 1881.5 378.096 1878.9C392.652 1874.47 399.42 1902.7 407.218 1909.32C413.508 1914.67 437.382 1870.46 442.425 1865.86C450.458 1858.52 471.311 1901.26 473.72 1907.15C477.464 1916.3 515.46 1867.73 521.533 1865.86C551.764 1856.56 553.002 1934.4 584.123 1910.19C595.123 1901.64 610.561 1884.04 626.503 1888.03C641.262 1891.72 642.597 1905.25 660.84 1899.98C678.131 1894.98 702.49 1866.92 720.606 1874.33C762.557 1891.5 801.988 1894.58 845.787 1882.16C863.855 1877.03 885.321 1866.42 904.031 1868.47C925.88 1870.85 946.832 1871.76 968.795 1869.99C978.611 1869.2 989.569 1866.77 999.221 1869.99C1020.8 1877.18 1052.71 1866.06 1072.24 1856.3" stroke="#2D2721" stroke-width="20" stroke-linecap="round"/>
<path d="M348.539 1825C348.539 1847.22 346.882 1866.4 341.585 1887.59C340.119 1893.45 340.715 1899.88 340.715 1905.85C340.715 1913.67 334.606 1934.21 340.715 1929.32C347.704 1923.73 352.676 1901.76 358.536 1893.68C363.869 1886.32 369.537 1881.5 378.096 1878.9C392.652 1874.47 399.42 1902.7 407.218 1909.32C413.508 1914.67 437.382 1870.46 442.425 1865.86C450.458 1858.52 471.311 1901.26 473.72 1907.15C477.464 1916.3 515.46 1867.73 521.533 1865.86C551.764 1856.56 553.002 1934.4 584.123 1910.19C595.123 1901.64 610.561 1884.04 626.503 1888.03C641.262 1891.72 642.597 1905.25 660.84 1899.98C678.131 1894.98 702.49 1866.92 720.606 1874.33C762.557 1891.5 801.988 1894.58 845.787 1882.16C863.855 1877.03 885.321 1866.42 904.031 1868.47C925.88 1870.85 946.832 1871.76 968.795 1869.99C978.611 1869.2 989.569 1866.77 999.221 1869.99C1020.8 1877.18 1052.71 1866.06 1072.24 1856.3" stroke="#2D2721" stroke-width="20" stroke-linecap="round"/>
<path d="M795.703 2489C795.703 2511.21 794.65 2530.38 791.28 2551.55C790.348 2557.41 790.727 2563.83 790.727 2569.8C790.727 2577.62 786.841 2598.14 790.727 2593.26C795.172 2587.67 798.334 2565.71 802.062 2557.64C805.453 2550.29 809.059 2545.47 814.502 2542.87C823.76 2538.44 828.065 2566.65 833.025 2573.27C837.025 2578.62 852.21 2534.44 855.417 2529.83C860.527 2522.5 873.79 2565.22 875.322 2571.1C877.703 2580.25 901.87 2531.7 905.732 2529.83C924.96 2520.54 925.748 2598.34 945.542 2574.14C952.538 2565.59 962.356 2548.01 972.496 2551.99C981.883 2555.68 982.732 2569.2 994.336 2563.94C1005.33 2558.94 1020.83 2530.9 1032.35 2538.31C1059.03 2555.46 1084.11 2558.54 1111.97 2546.12C1123.46 2541 1137.11 2530.4 1149.01 2532.44C1162.91 2534.82 1176.23 2535.73 1190.2 2533.96C1196.45 2533.17 1203.42 2530.75 1209.56 2533.96C1223.28 2541.15 1243.57 2530.04 1256 2520.28" stroke="#2D2721" stroke-width="20" stroke-linecap="round"/>
<path d="M502.703 3167C502.703 3189.21 501.65 3208.38 498.28 3229.55C497.348 3235.41 497.727 3241.83 497.727 3247.8C497.727 3255.62 493.841 3276.14 497.727 3271.26C502.172 3265.67 505.334 3243.71 509.062 3235.64C512.453 3228.29 516.059 3223.47 521.502 3220.87C530.76 3216.44 535.065 3244.65 540.025 3251.27C544.025 3256.62 559.21 3212.44 562.417 3207.83C567.527 3200.5 580.79 3243.22 582.322 3249.1C584.703 3258.25 608.87 3209.7 612.732 3207.83C631.96 3198.54 632.748 3276.34 652.542 3252.14C659.538 3243.59 669.356 3226.01 679.496 3229.99C688.883 3233.68 689.732 3247.2 701.336 3241.94C712.333 3236.94 727.826 3208.9 739.348 3216.31C766.03 3233.46 791.11 3236.54 818.967 3224.12C830.459 3219 844.112 3208.4 856.012 3210.44C869.909 3212.82 883.235 3213.73 897.204 3211.96C903.447 3211.17 910.417 3208.75 916.556 3211.96C930.278 3219.15 950.575 3208.04 963 3198.28" stroke="#2D2721" stroke-width="20" stroke-linecap="round"/>
<path d="M348.539 1930C348.539 1952.22 346.882 1971.4 341.585 1992.59C340.119 1998.45 340.715 2004.88 340.715 2010.85C340.715 2018.67 334.606 2039.21 340.715 2034.32C347.704 2028.73 352.676 2006.76 358.536 1998.68C363.869 1991.32 369.537 1986.5 378.096 1983.9C392.652 1979.47 399.42 2007.7 407.218 2014.32C413.508 2019.67 437.382 1975.46 442.425 1970.86C450.458 1963.52 471.311 2006.26 473.72 2012.15C477.464 2021.3 515.46 1972.73 521.533 1970.86C551.764 1961.56 553.002 2039.4 584.123 2015.19C595.123 2006.64 610.561 1989.04 626.503 1993.03C641.262 1996.72 642.597 2010.25 660.84 2004.98C678.131 1999.98 702.49 1971.92 720.606 1979.33C762.557 1996.5 801.988 1999.58 845.787 1987.16C863.855 1982.03 885.321 1971.42 904.031 1973.47C925.88 1975.85 946.832 1976.76 968.795 1974.99C978.611 1974.2 989.569 1971.77 999.221 1974.99C1020.8 1982.18 1052.71 1971.06 1072.24 1961.3" stroke="#2D2721" stroke-width="20" stroke-linecap="round"/>
<path d="M177.296 1028.9C216.91 1037.7 261.922 1032.81 302.477 1032.81" stroke="#2D2721" stroke-width="20" stroke-linecap="round"/>
<path d="M185.119 1095.4C217.284 1096.8 248.353 1103.23 280.744 1103.23C323.32 1103.23 365.218 1102.71 407.664 1099.32C449.641 1095.96 491.18 1095.4 533.28 1095.4" stroke="#2D2721" stroke-width="20" stroke-linecap="round"/>
<line x1="76" y1="1647" x2="642" y2="1647" stroke="#3F4D15" stroke-width="2"/>
<line x1="789" y1="2187" x2="1355" y2="2187" stroke="#3F4D15" stroke-width="2"/>
<rect x="783" y="2822" width="336" height="77" fill="#D9D9D9"/>
</g>
<defs>
<clipPath id="clip0_1_133">
<rect width="1440" height="3571" fill="white"/>
</clipPath>
</defs>
</svg>
