<svg width="1440" height="3571" viewBox="0 0 1440 3571" fill="none" xmlns="http://www.w3.org/2000/svg">
<g clip-path="url(#clip0_35_98)">
<rect width="1440" height="3571" fill="white"/>
<rect x="1" y="1" width="1438" height="717" fill="white" stroke="black" stroke-width="2"/>
<path d="M59.2182 41.2447C58.3827 65.0584 55.553 88.5537 49.9306 111.718C49.2652 114.459 48.0505 122.757 47.9225 119.939C47.6126 113.121 49.1443 105.4 50.1816 98.7277C50.2401 98.3518 51.0653 85.3102 55.3275 87.7457C56.8 88.5871 60.9369 97.2404 61.4774 95.2135C63.3941 88.0259 63.4857 79.8428 64.3641 72.4964C64.8777 68.201 64.563 60.0896 66.8743 55.9292C67.7449 54.3621 67.6637 59.4295 67.9411 61.2006C69.4951 71.1224 71.2272 81.003 72.6477 90.9462C72.9258 92.8931 73.9674 97.9965 75.0323 96.343C79.6443 89.1824 80.9668 78.098 83.5669 70.1117C84.99 65.741 89.27 45.152 93.8586 58.0001C95.9017 63.7206 97.4714 69.6044 98.879 75.5086C100.282 81.3931 99.8778 82.1604 102.77 75.7596C103.093 75.0435 108.119 60.6453 111.367 63.5225C116.199 67.8023 114.934 81.3248 116.199 87.3064C117.151 91.8043 118.71 85.769 119.211 84.5452C122.254 77.1139 124.726 69.0582 129.001 62.2047C134.611 53.2108 135.647 71.2237 135.904 74.5673C136.5 82.321 138.747 78.0029 142.556 72.8729C144.894 69.7245 149.202 56.5764 152.408 64.3383C153.884 67.9115 154.229 71.5787 155.232 75.2576C156.908 81.4029 160.919 68.004 161.257 67.225C165.949 56.4031 166.598 67.2503 172.866 65.3424C176.008 64.3863 177.841 62.7067 181.213 62.7067" stroke="#2D2721" stroke-width="20" stroke-linecap="round"/>
<path d="M935.743 55.6507H989.907" stroke="#2D2721" stroke-width="20" stroke-linecap="round"/>
<path d="M1031.24 55.6507H1093.96" stroke="#2D2721" stroke-width="20" stroke-linecap="round"/>
<path d="M1156.68 54.2253C1178.56 54.2253 1200.34 52.7999 1222.24 52.7999" stroke="#2D2721" stroke-width="20" stroke-linecap="round"/>
<path d="M1371.91 51.3746C1368.42 51.3746 1354.42 49.6927 1356.31 56.2842C1357.18 59.3268 1371.26 55.2344 1364.62 52.2456C1357.96 49.2464 1365.1 56.9411 1368.74 57.076C1374.66 57.2952 1377.54 53.1384 1370.48 51.3746" stroke="#2D2721" stroke-width="20" stroke-linecap="round"/>
<rect x="199" y="911" width="476" height="657" fill="white" stroke="black" stroke-width="2"/>
<line y1="-1" x2="807.205" y2="-1" transform="matrix(0.592167 -0.805815 0.175865 0.984414 198 1560.46)" stroke="black" stroke-width="2"/>
<line y1="-1" x2="807.205" y2="-1" transform="matrix(-0.592167 -0.805815 0.175865 -0.984414 676 1560.46)" stroke="black" stroke-width="2"/>
<path d="M439.394 277.813C435.059 291.747 429.565 304.976 423.964 318.454C419.989 328.017 404.675 352.784 413.749 347.793C422.721 342.859 436.213 314.187 440.263 307.805C449.877 292.656 466.727 252.639 485.468 245.432C499.629 239.985 498.073 359.105 498.073 369.092C498.073 379.461 494.125 411.248 507.635 385.174C529.807 342.381 544.296 286.853 576.746 250.43C584.224 242.036 583.376 272.481 582.396 283.681C581.486 294.081 580.223 304.719 580.223 315.194C580.223 328.234 616.98 275.995 620.211 271.511C626.025 263.443 629.936 243.953 638.902 248.257C640.6 249.072 640.646 251.639 641.075 253.473C643.843 265.3 645.589 285.438 646.508 295.852C648.609 319.664 646.197 348.942 653.245 372.134C658.308 388.793 679.554 353.874 681.933 350.836C691.538 338.569 701.866 316.434 708.447 340.839C716.703 371.456 706.86 385.713 739.959 356.052C754.24 343.255 776.53 305.348 794.292 319.975C813.831 336.067 881.484 266.498 896.653 254.777C925.189 232.727 909.217 277.691 937.946 271.946C949.274 269.68 954.752 271.287 964.025 278.031C984.993 293.28 1013.38 289.549 1037.92 289.549" stroke="#2D2721" stroke-width="20" stroke-linecap="round"/>
<path d="M392.451 536C404.207 523.553 449.324 466.888 470.255 490.144C484.756 506.256 470.97 527.469 499.812 510.79C517.624 500.489 527.154 491.204 547.407 495.142C588.069 503.049 625.599 486.511 661.069 509.486C703.564 537.011 781.414 538.045 826.022 516.875C845.483 507.639 861.992 501.669 882.745 493.838C924.571 478.055 973.982 481.233 1018.36 481.233" stroke="#2D2721" stroke-width="20" stroke-linecap="round"/>
<path d="M646 3510C685.615 3518.8 730.626 3513.91 771.181 3513.91" stroke="#2D2721" stroke-width="20" stroke-linecap="round"/>
<path d="M930 3513C969.615 3521.8 1014.63 3516.91 1055.18 3516.91" stroke="#2D2721" stroke-width="20" stroke-linecap="round"/>
<path d="M1214 3516C1253.61 3524.8 1298.63 3519.91 1339.18 3519.91" stroke="#2D2721" stroke-width="20" stroke-linecap="round"/>
<path d="M374 3505C413.615 3513.8 458.626 3508.91 499.181 3508.91" stroke="#2D2721" stroke-width="20" stroke-linecap="round"/>
<path d="M118 3500C157.615 3508.8 202.626 3503.91 243.181 3503.91" stroke="#2D2721" stroke-width="20" stroke-linecap="round"/>
<path d="M502.703 3167C502.703 3189.21 501.65 3208.38 498.28 3229.55C497.348 3235.41 497.727 3241.83 497.727 3247.8C497.727 3255.62 493.841 3276.14 497.727 3271.26C502.172 3265.67 505.334 3243.71 509.062 3235.64C512.453 3228.29 516.059 3223.47 521.502 3220.87C530.76 3216.44 535.065 3244.65 540.025 3251.27C544.025 3256.62 559.21 3212.44 562.417 3207.83C567.527 3200.5 580.79 3243.22 582.322 3249.1C584.703 3258.25 608.87 3209.7 612.732 3207.83C631.96 3198.54 632.748 3276.34 652.542 3252.14C659.538 3243.59 669.356 3226.01 679.496 3229.99C688.883 3233.68 689.732 3247.2 701.336 3241.94C712.333 3236.94 727.826 3208.9 739.348 3216.31C766.03 3233.46 791.11 3236.54 818.967 3224.12C830.459 3219 844.112 3208.4 856.012 3210.44C869.909 3212.82 883.235 3213.73 897.204 3211.96C903.447 3211.17 910.417 3208.75 916.556 3211.96C930.278 3219.15 950.575 3208.04 963 3198.28" stroke="#2D2721" stroke-width="20" stroke-linecap="round"/>
<line x1="-15.4422" y1="718.103" x2="1424.56" y2="8.1031" stroke="black" stroke-width="2"/>
<line x1="1443.56" y1="710.897" x2="3.55778" y2="0.89691" stroke="black" stroke-width="2"/>
<path d="M810.397 937C810.397 959.212 809.549 978.375 806.836 999.555C806.085 1005.41 806.39 1011.83 806.39 1017.8C806.39 1025.62 803.262 1046.14 806.39 1041.26C809.969 1035.67 812.515 1013.71 815.516 1005.64C818.247 998.288 821.15 993.47 825.533 990.866C832.987 986.439 836.452 1014.65 840.446 1021.27C843.667 1026.62 855.893 982.436 858.475 977.834C862.589 970.504 873.267 1013.22 874.501 1019.1C876.418 1028.25 895.876 979.702 898.986 977.834C914.467 968.538 915.101 1046.34 931.038 1022.14C936.671 1013.59 944.576 996.006 952.74 999.989C960.298 1003.68 960.981 1017.2 970.324 1011.94C979.178 1006.94 991.652 978.898 1000.93 986.305C1022.41 1003.46 1042.6 1006.54 1065.03 994.124C1074.29 989.004 1085.28 978.401 1094.86 980.441C1106.05 982.823 1116.78 983.731 1128.02 981.961C1133.05 981.17 1138.66 978.746 1143.61 981.961C1154.65 989.149 1171 978.04 1181 968.277" stroke="#2D2721" stroke-width="20" stroke-linecap="round"/>
<path d="M810 1152C830.57 1160.36 853.942 1155.71 875 1155.71" stroke="#2D2721" stroke-width="20" stroke-linecap="round"/>
<rect x="805" y="1483" width="336" height="77" fill="#D9D9D9"/>
<rect x="199" y="1706" width="476" height="657" fill="white" stroke="black" stroke-width="2"/>
<line y1="-1" x2="807.205" y2="-1" transform="matrix(0.592167 -0.805815 0.175865 0.984414 198 2355.75)" stroke="black" stroke-width="2"/>
<line y1="-1" x2="807.205" y2="-1" transform="matrix(-0.592167 -0.805815 0.175865 -0.984414 676 2355.75)" stroke="black" stroke-width="2"/>
<path d="M810.397 1738C810.397 1760.21 809.549 1779.38 806.836 1800.55C806.085 1806.41 806.39 1812.83 806.39 1818.8C806.39 1826.62 803.262 1847.14 806.39 1842.26C809.969 1836.67 812.515 1814.71 815.516 1806.64C818.247 1799.29 821.15 1794.47 825.533 1791.87C832.987 1787.44 836.452 1815.65 840.446 1822.27C843.667 1827.62 855.893 1783.44 858.475 1778.83C862.589 1771.5 873.267 1814.22 874.501 1820.1C876.418 1829.25 895.876 1780.7 898.986 1778.83C914.467 1769.54 915.101 1847.34 931.038 1823.14C936.671 1814.59 944.576 1797.01 952.74 1800.99C960.298 1804.68 960.981 1818.2 970.324 1812.94C979.178 1807.94 991.652 1779.9 1000.93 1787.31C1022.41 1804.46 1042.6 1807.54 1065.03 1795.12C1074.29 1790 1085.28 1779.4 1094.86 1781.44C1106.05 1783.82 1116.78 1784.73 1128.02 1782.96C1133.05 1782.17 1138.66 1779.75 1143.61 1782.96C1154.65 1790.15 1171 1779.04 1181 1769.28" stroke="#2D2721" stroke-width="20" stroke-linecap="round"/>
<path d="M810 1953C830.57 1961.36 853.942 1956.71 875 1956.71" stroke="#2D2721" stroke-width="20" stroke-linecap="round"/>
<rect x="810" y="2279" width="336" height="77" fill="#D9D9D9"/>
<rect x="1" y="2593" width="1443" height="416" fill="white" stroke="black" stroke-width="2"/>
<path d="M785 2726C824.557 2732.69 869.504 2728.97 910 2728.97" stroke="#2D2721" stroke-width="20" stroke-linecap="round"/>
<path d="M793 2769C825.15 2769.89 856.204 2774 888.581 2774C931.137 2774 973.015 2773.67 1015.44 2771.5C1057.4 2769.35 1098.92 2769 1141 2769" stroke="#2D2721" stroke-width="20" stroke-linecap="round"/>
<path d="M91.7032 2706C91.7032 2720.38 90.6495 2732.8 87.2799 2746.51C86.3477 2750.31 86.727 2754.46 86.727 2758.33C86.727 2763.39 82.8413 2776.68 86.727 2773.52C91.1722 2769.9 94.3341 2755.68 98.0616 2750.45C101.453 2745.69 105.059 2742.57 110.502 2740.88C119.76 2738.02 124.065 2756.29 129.025 2760.58C133.025 2764.04 148.21 2735.43 151.417 2732.45C156.527 2727.7 169.79 2755.36 171.322 2759.17C173.703 2765.09 197.87 2733.65 201.732 2732.45C220.96 2726.42 221.748 2776.81 241.542 2761.14C248.538 2755.6 258.356 2744.21 268.496 2746.79C277.883 2749.18 278.732 2757.94 290.336 2754.53C301.333 2751.3 316.826 2733.13 328.348 2737.93C355.03 2749.04 380.11 2751.03 407.967 2742.99C419.459 2739.68 433.112 2732.81 445.012 2734.13C458.909 2735.68 472.235 2736.26 486.204 2735.12C492.447 2734.61 499.417 2733.04 505.556 2735.12C519.278 2739.77 539.575 2732.58 552 2726.26" stroke="#2D2721" stroke-width="20" stroke-linecap="round"/>
<path d="M91.7032 2815C91.7032 2829.38 90.6495 2841.8 87.2799 2855.51C86.3477 2859.31 86.727 2863.46 86.727 2867.33C86.727 2872.39 82.8413 2885.68 86.727 2882.52C91.1722 2878.9 94.3341 2864.68 98.0616 2859.45C101.453 2854.69 105.059 2851.57 110.502 2849.88C119.76 2847.02 124.065 2865.29 129.025 2869.58C133.025 2873.04 148.21 2844.43 151.417 2841.45C156.527 2836.7 169.79 2864.36 171.322 2868.17C173.703 2874.09 197.87 2842.65 201.732 2841.45C220.96 2835.42 221.748 2885.81 241.542 2870.14C248.538 2864.6 258.356 2853.21 268.496 2855.79C277.883 2858.18 278.732 2866.94 290.336 2863.53C301.333 2860.3 316.826 2842.13 328.348 2846.93C355.03 2858.04 380.11 2860.03 407.967 2851.99C419.459 2848.68 433.112 2841.81 445.012 2843.13C458.909 2844.68 472.235 2845.26 486.204 2844.12C492.447 2843.61 499.417 2842.04 505.556 2844.12C519.278 2848.77 539.575 2841.58 552 2835.26" stroke="#2D2721" stroke-width="20" stroke-linecap="round"/>
<rect x="785" y="2842" width="221" height="82" fill="#D9D9D9"/>
<rect x="1036" y="2842" width="105" height="82" fill="#D9D9D9"/>
</g>
<defs>
<clipPath id="clip0_35_98">
<rect width="1440" height="3571" fill="white"/>
</clipPath>
</defs>
</svg>
