<svg width="1440" height="3571" viewBox="0 0 1440 3571" fill="none" xmlns="http://www.w3.org/2000/svg">
<g clip-path="url(#clip0_35_31)">
<rect width="1440" height="3571" fill="white"/>
<rect x="1" y="1" width="1438" height="717" fill="white" stroke="black" stroke-width="2"/>
<path d="M59.2182 41.2447C58.3827 65.0584 55.553 88.5537 49.9306 111.718C49.2652 114.459 48.0505 122.757 47.9225 119.939C47.6126 113.121 49.1443 105.4 50.1816 98.7277C50.2401 98.3518 51.0653 85.3102 55.3275 87.7457C56.8 88.5871 60.9369 97.2404 61.4774 95.2135C63.3941 88.0259 63.4857 79.8428 64.3641 72.4964C64.8777 68.201 64.563 60.0896 66.8743 55.9292C67.7449 54.3621 67.6637 59.4295 67.9411 61.2006C69.4951 71.1224 71.2272 81.003 72.6477 90.9462C72.9258 92.8931 73.9674 97.9965 75.0323 96.343C79.6443 89.1824 80.9668 78.098 83.5669 70.1117C84.99 65.741 89.27 45.152 93.8586 58.0001C95.9017 63.7206 97.4714 69.6044 98.879 75.5086C100.282 81.3931 99.8778 82.1604 102.77 75.7596C103.093 75.0435 108.119 60.6453 111.367 63.5225C116.199 67.8023 114.934 81.3248 116.199 87.3064C117.151 91.8043 118.71 85.769 119.211 84.5452C122.254 77.1139 124.726 69.0582 129.001 62.2047C134.611 53.2108 135.647 71.2237 135.904 74.5673C136.5 82.321 138.747 78.0029 142.556 72.8729C144.894 69.7245 149.202 56.5764 152.408 64.3383C153.884 67.9115 154.229 71.5787 155.232 75.2576C156.908 81.4029 160.919 68.004 161.257 67.225C165.949 56.4031 166.598 67.2503 172.866 65.3424C176.008 64.3863 177.841 62.7067 181.213 62.7067" stroke="#2D2721" stroke-width="20" stroke-linecap="round"/>
<path d="M935.743 55.6507H989.907" stroke="#2D2721" stroke-width="20" stroke-linecap="round"/>
<path d="M1031.24 55.6507H1093.96" stroke="#2D2721" stroke-width="20" stroke-linecap="round"/>
<path d="M1156.68 54.2253C1178.56 54.2253 1200.34 52.7999 1222.24 52.7999" stroke="#2D2721" stroke-width="20" stroke-linecap="round"/>
<path d="M1371.91 51.3746C1368.42 51.3746 1354.42 49.6927 1356.31 56.2842C1357.18 59.3268 1371.26 55.2344 1364.62 52.2456C1357.96 49.2464 1365.1 56.9411 1368.74 57.076C1374.66 57.2952 1377.54 53.1384 1370.48 51.3746" stroke="#2D2721" stroke-width="20" stroke-linecap="round"/>
<rect x="199" y="911" width="476" height="435" fill="white" stroke="black" stroke-width="2"/>
<line y1="-1" x2="643.974" y2="-1" transform="matrix(0.742266 -0.670105 0.26002 0.965603 198 1341.53)" stroke="black" stroke-width="2"/>
<line y1="-1" x2="643.974" y2="-1" transform="matrix(-0.742266 -0.670105 0.26002 -0.965603 676 1341.53)" stroke="black" stroke-width="2"/>
<rect x="800" y="1720" width="476" height="435" fill="white" stroke="black" stroke-width="2"/>
<line y1="-1" x2="643.974" y2="-1" transform="matrix(0.742266 -0.670105 0.26002 0.965603 799 2150.53)" stroke="black" stroke-width="2"/>
<line y1="-1" x2="643.974" y2="-1" transform="matrix(-0.742266 -0.670105 0.26002 -0.965603 1277 2150.53)" stroke="black" stroke-width="2"/>
<path d="M439.394 277.813C435.059 291.747 429.565 304.976 423.964 318.454C419.989 328.017 404.675 352.784 413.749 347.793C422.721 342.859 436.213 314.187 440.263 307.805C449.877 292.656 466.727 252.639 485.468 245.432C499.629 239.985 498.073 359.105 498.073 369.092C498.073 379.461 494.125 411.248 507.635 385.174C529.807 342.381 544.296 286.853 576.746 250.43C584.224 242.036 583.376 272.481 582.396 283.681C581.486 294.081 580.223 304.719 580.223 315.194C580.223 328.234 616.98 275.995 620.211 271.511C626.025 263.443 629.936 243.953 638.902 248.257C640.6 249.072 640.646 251.639 641.075 253.473C643.843 265.3 645.589 285.438 646.508 295.852C648.609 319.664 646.197 348.942 653.245 372.134C658.308 388.793 679.554 353.874 681.933 350.836C691.538 338.569 701.866 316.434 708.447 340.839C716.703 371.456 706.86 385.713 739.959 356.052C754.24 343.255 776.53 305.348 794.292 319.975C813.831 336.067 881.484 266.498 896.653 254.777C925.189 232.727 909.217 277.691 937.946 271.946C949.274 269.68 954.752 271.287 964.025 278.031C984.993 293.28 1013.38 289.549 1037.92 289.549" stroke="#2D2721" stroke-width="20" stroke-linecap="round"/>
<path d="M392.451 536C404.207 523.553 449.324 466.888 470.255 490.144C484.756 506.256 470.97 527.469 499.812 510.79C517.624 500.489 527.154 491.204 547.407 495.142C588.069 503.049 625.599 486.511 661.069 509.486C703.564 537.011 781.414 538.045 826.022 516.875C845.483 507.639 861.992 501.669 882.745 493.838C924.571 478.055 973.982 481.233 1018.36 481.233" stroke="#2D2721" stroke-width="20" stroke-linecap="round"/>
<path d="M646 3510C685.615 3518.8 730.626 3513.91 771.181 3513.91" stroke="#2D2721" stroke-width="20" stroke-linecap="round"/>
<path d="M930 3513C969.615 3521.8 1014.63 3516.91 1055.18 3516.91" stroke="#2D2721" stroke-width="20" stroke-linecap="round"/>
<path d="M1214 3516C1253.61 3524.8 1298.63 3519.91 1339.18 3519.91" stroke="#2D2721" stroke-width="20" stroke-linecap="round"/>
<path d="M374 3505C413.615 3513.8 458.626 3508.91 499.181 3508.91" stroke="#2D2721" stroke-width="20" stroke-linecap="round"/>
<path d="M118 3500C157.615 3508.8 202.626 3503.91 243.181 3503.91" stroke="#2D2721" stroke-width="20" stroke-linecap="round"/>
<path d="M502.703 3167C502.703 3189.21 501.65 3208.38 498.28 3229.55C497.348 3235.41 497.727 3241.83 497.727 3247.8C497.727 3255.62 493.841 3276.14 497.727 3271.26C502.172 3265.67 505.334 3243.71 509.062 3235.64C512.453 3228.29 516.059 3223.47 521.502 3220.87C530.76 3216.44 535.065 3244.65 540.025 3251.27C544.025 3256.62 559.21 3212.44 562.417 3207.83C567.527 3200.5 580.79 3243.22 582.322 3249.1C584.703 3258.25 608.87 3209.7 612.732 3207.83C631.96 3198.54 632.748 3276.34 652.542 3252.14C659.538 3243.59 669.356 3226.01 679.496 3229.99C688.883 3233.68 689.732 3247.2 701.336 3241.94C712.333 3236.94 727.826 3208.9 739.348 3216.31C766.03 3233.46 791.11 3236.54 818.967 3224.12C830.459 3219 844.112 3208.4 856.012 3210.44C869.909 3212.82 883.235 3213.73 897.204 3211.96C903.447 3211.17 910.417 3208.75 916.556 3211.96C930.278 3219.15 950.575 3208.04 963 3198.28" stroke="#2D2721" stroke-width="20" stroke-linecap="round"/>
<line x1="-15.4422" y1="718.103" x2="1424.56" y2="8.1031" stroke="black" stroke-width="2"/>
<line x1="1443.56" y1="710.897" x2="3.55778" y2="0.89691" stroke="black" stroke-width="2"/>
<path d="M810.397 840C810.397 862.212 809.549 881.375 806.836 902.555C806.085 908.414 806.39 914.834 806.39 920.8C806.39 928.619 803.262 949.142 806.39 944.258C809.969 938.67 812.515 916.712 815.516 908.636C818.247 901.288 821.15 896.47 825.533 893.866C832.987 889.439 836.452 917.65 840.446 924.275C843.667 929.618 855.893 885.436 858.475 880.834C862.589 873.504 873.267 916.216 874.501 922.103C876.418 931.249 895.876 882.702 898.986 880.834C914.467 871.538 915.101 949.335 931.038 925.144C936.671 916.593 944.576 899.006 952.74 902.989C960.298 906.677 960.981 920.202 970.324 914.935C979.178 909.943 991.652 881.898 1000.93 889.305C1022.41 906.457 1042.6 909.538 1065.03 897.124C1074.29 892.004 1085.28 881.401 1094.86 883.441C1106.05 885.823 1116.78 886.731 1128.02 884.961C1133.05 884.17 1138.66 881.746 1143.61 884.961C1154.65 892.149 1171 881.04 1181 871.277" stroke="#2D2721" stroke-width="20" stroke-linecap="round"/>
<path d="M810 1055C830.57 1063.36 853.942 1058.71 875 1058.71" stroke="#2D2721" stroke-width="20" stroke-linecap="round"/>
<path d="M814 1122C830.537 1123.25 846.51 1129 863.164 1129C885.053 1129 906.594 1128.54 928.417 1125.5C949.999 1122.5 971.355 1122 993 1122" stroke="#2D2721" stroke-width="20" stroke-linecap="round"/>
<rect x="810" y="1239" width="336" height="77" fill="#D9D9D9"/>
<rect x="224" y="2479" width="476" height="435" fill="white" stroke="black" stroke-width="2"/>
<line y1="-1" x2="643.974" y2="-1" transform="matrix(0.742266 -0.670105 0.26002 0.965603 223 2909.53)" stroke="black" stroke-width="2"/>
<line y1="-1" x2="643.974" y2="-1" transform="matrix(-0.742266 -0.670105 0.26002 -0.965603 701 2909.53)" stroke="black" stroke-width="2"/>
<path d="M835.397 2408C835.397 2430.21 834.549 2449.38 831.836 2470.55C831.085 2476.41 831.39 2482.83 831.39 2488.8C831.39 2496.62 828.262 2517.14 831.39 2512.26C834.969 2506.67 837.515 2484.71 840.516 2476.64C843.247 2469.29 846.15 2464.47 850.533 2461.87C857.987 2457.44 861.452 2485.65 865.446 2492.27C868.667 2497.62 880.893 2453.44 883.475 2448.83C887.589 2441.5 898.267 2484.22 899.501 2490.1C901.418 2499.25 920.876 2450.7 923.986 2448.83C939.467 2439.54 940.101 2517.34 956.038 2493.14C961.671 2484.59 969.576 2467.01 977.74 2470.99C985.298 2474.68 985.981 2488.2 995.324 2482.94C1004.18 2477.94 1016.65 2449.9 1025.93 2457.31C1047.41 2474.46 1067.6 2477.54 1090.03 2465.12C1099.29 2460 1110.28 2449.4 1119.86 2451.44C1131.05 2453.82 1141.78 2454.73 1153.02 2452.96C1158.05 2452.17 1163.66 2449.75 1168.61 2452.96C1179.65 2460.15 1196 2449.04 1206 2439.28" stroke="#2D2721" stroke-width="20" stroke-linecap="round"/>
<path d="M835 2623C855.57 2631.36 878.942 2626.71 900 2626.71" stroke="#2D2721" stroke-width="20" stroke-linecap="round"/>
<path d="M839 2690C855.537 2691.25 871.51 2697 888.164 2697C910.053 2697 931.594 2696.54 953.417 2693.5C974.999 2690.5 996.355 2690 1018 2690" stroke="#2D2721" stroke-width="20" stroke-linecap="round"/>
<rect x="835" y="2807" width="336" height="77" fill="#D9D9D9"/>
<path d="M228.397 1675C228.397 1697.21 227.549 1716.38 224.836 1737.55C224.085 1743.41 224.39 1749.83 224.39 1755.8C224.39 1763.62 221.262 1784.14 224.39 1779.26C227.969 1773.67 230.515 1751.71 233.516 1743.64C236.247 1736.29 239.15 1731.47 243.533 1728.87C250.987 1724.44 254.452 1752.65 258.446 1759.27C261.667 1764.62 273.893 1720.44 276.475 1715.83C280.589 1708.5 291.267 1751.22 292.501 1757.1C294.418 1766.25 313.876 1717.7 316.986 1715.83C332.467 1706.54 333.101 1784.34 349.038 1760.14C354.671 1751.59 362.576 1734.01 370.74 1737.99C378.298 1741.68 378.981 1755.2 388.324 1749.94C397.178 1744.94 409.652 1716.9 418.929 1724.31C440.412 1741.46 460.604 1744.54 483.034 1732.12C492.286 1727 503.279 1716.4 512.86 1718.44C524.049 1720.82 534.778 1721.73 546.025 1719.96C551.052 1719.17 556.663 1716.75 561.606 1719.96C572.654 1727.15 588.996 1716.04 599 1706.28" stroke="#2D2721" stroke-width="20" stroke-linecap="round"/>
<path d="M228 1890C248.57 1898.36 271.942 1893.71 293 1893.71" stroke="#2D2721" stroke-width="20" stroke-linecap="round"/>
<path d="M232 1957C248.537 1958.25 264.51 1964 281.164 1964C303.053 1964 324.594 1963.54 346.417 1960.5C367.999 1957.5 389.355 1957 411 1957" stroke="#2D2721" stroke-width="20" stroke-linecap="round"/>
<rect x="228" y="2074" width="336" height="77" fill="#D9D9D9"/>
<path d="M1330 1134L1342 1122L1330 1110" stroke="#1E1E1E" stroke-width="4" stroke-linecap="round" stroke-linejoin="round"/>
<path d="M80 1134L68 1122L80 1110" stroke="#1E1E1E" stroke-width="4" stroke-linecap="round" stroke-linejoin="round"/>
<path d="M1326 1952L1338 1940L1326 1928" stroke="#1E1E1E" stroke-width="4" stroke-linecap="round" stroke-linejoin="round"/>
<path d="M76 1952L64 1940L76 1928" stroke="#1E1E1E" stroke-width="4" stroke-linecap="round" stroke-linejoin="round"/>
<path d="M1334 2706L1346 2694L1334 2682" stroke="#1E1E1E" stroke-width="4" stroke-linecap="round" stroke-linejoin="round"/>
<path d="M84 2706L72 2694L84 2682" stroke="#1E1E1E" stroke-width="4" stroke-linecap="round" stroke-linejoin="round"/>
</g>
<defs>
<clipPath id="clip0_35_31">
<rect width="1440" height="3571" fill="white"/>
</clipPath>
</defs>
</svg>
